<svg xmlns="http://www.w3.org/2000/svg" width="19" height="20"><title>icon-debit</title><desc>Created with Sketch.</desc><g fill="none"><g fill="#636363"><g><g><g><g><path d="M18.1 18.37c0 .25-.2.45-.42.45H2.2c-.24 0-.43-.2-.43-.45V15.3H3v1.58c0 .36.28.65.62.65h12.64c.34 0 .62-.3.62-.65V3.6c0-.36-.28-.65-.62-.65H3.62c-.34 0-.62.3-.62.65v1.57H1.77V2.1c0-.24.2-.44.43-.44h15.48c.23 0 .43.2.43.45v16.27zM1.78 6.95H3.8v-.87H1.78v.87zM3.8 15.3h.44c.24 0 .43-.2.43-.44v-1.78c0-.25-.2-.45-.43-.45H3.8V7.85h.44c.24 0 .43-.2.43-.45V5.62c0-.24-.2-.45-.43-.45H3.8V3.8h12.26V16.7H3.8V15.3zm-2.03-.9H3.8v-.87H1.78v.87zm0-1.77H3V7.85H1.77v4.78zM17.67.76H2.2C1.5.76.9 1.36.9 2.1v16.27c0 .75.6 1.35 1.3 1.35h15.48c.7 0 1.28-.6 1.28-1.35V2.1c0-.73-.57-1.34-1.28-1.34z"/><path d="M12.27 9.83c-.05-.37-.2-.73-.4-1.04l.76-.8c.4.53.65 1.18.72 1.83h-1.08zm-1.95 2.86c.36-.07.7-.2 1-.44l.76.8c-.52.44-1.13.7-1.76.77V12.7zm-1.76-.44c.3.23.63.37 1 .43v1.13c-.64-.08-1.25-.33-1.76-.76l.76-.8zm1-4.47c-.37.05-.7.2-1 .42l-.76-.8c.5-.44 1.12-.7 1.75-.77V7.8zm1.76.42c-.3-.22-.64-.37-1-.43V6.64c.63.08 1.24.33 1.76.77l-.76.8zm-1.38 3.7c-.43 0-.83-.18-1.13-.5-.3-.3-.46-.73-.46-1.18 0-.45.17-.87.47-1.18.3-.32.7-.5 1.14-.5.42 0 .82.18 1.12.5.3.3.47.73.47 1.18 0 .45-.16.87-.47 1.18-.3.32-.7.5-1.12.5zm-2.7-3.93l.77.8c-.2.3-.34.66-.4 1.03H6.52c.07-.65.32-1.3.73-1.84zm-.72 2.65H7.6c.06.37.2.73.4 1.04l-.75.8c-.4-.55-.66-1.2-.73-1.85zm6.1 1.84l-.76-.8c.22-.32.36-.68.4-1.05h1.1c-.08.66-.32 1.3-.73 1.84zM6.97 7.1c-1.64 1.74-1.64 4.54 0 6.27.82.86 1.9 1.3 2.98 1.3s2.16-.44 2.98-1.3c1.64-1.73 1.64-4.53 0-6.26-1.65-1.7-4.32-1.7-5.96 0z"/></g></g></g></g></g></g></svg>